<svg id="svg" version="1.1" xmlns="http://www.w3.org/2000/svg" xmlns:xlink="http://www.w3.org/1999/xlink" width="400" height="225" viewBox="0, 0, 400,225"><g id="svgg"><path id="path0" d="M132.761 5.438 C 128.830 7.384,130.189 11.273,135.122 12.196 C 137.979 12.731,138.702 13.334,138.205 14.769 C 137.656 16.353,132.740 16.440,131.452 14.888 C 130.919 14.246,130.625 14.537,130.625 15.707 L 130.625 16.830 131.510 17.202 C 135.638 18.936,140.357 17.024,140.152 13.701 C 140.030 11.725,139.135 11.046,135.827 10.415 C 133.426 9.958,132.971 9.755,132.689 9.012 C 131.918 6.983,135.147 5.922,138.229 7.191 C 139.846 7.857,139.792 7.874,139.792 6.694 L 139.792 5.680 138.580 5.340 C 136.774 4.833,133.885 4.882,132.761 5.438 M206.823 5.333 C 205.835 5.637,205.833 5.640,205.833 6.569 C 205.833 7.643,205.801 7.631,207.242 7.083 C 209.674 6.159,211.667 6.768,211.667 8.436 C 211.667 9.869,210.574 11.319,207.344 14.168 C 205.686 15.631,205.625 15.717,205.625 16.592 L 205.625 17.500 209.896 17.500 L 214.167 17.500 214.167 16.771 L 214.167 16.042 210.908 16.042 L 207.650 16.042 208.669 15.171 C 213.102 11.383,214.373 8.977,213.162 6.663 C 212.362 5.136,209.452 4.525,206.823 5.333 M219.063 5.282 C 215.857 6.751,215.810 15.768,218.999 17.417 C 219.977 17.922,222.599 17.757,223.472 17.134 C 225.985 15.341,225.980 7.364,223.465 5.570 C 222.656 4.993,220.063 4.823,219.063 5.282 M230.313 5.282 C 227.107 6.751,227.060 15.768,230.249 17.417 C 231.227 17.922,233.849 17.757,234.722 17.134 C 237.235 15.341,237.230 7.364,234.715 5.570 C 233.906 4.993,231.313 4.823,230.313 5.282 M241.563 5.282 C 238.357 6.751,238.310 15.768,241.499 17.417 C 242.477 17.922,245.099 17.757,245.972 17.134 C 248.485 15.341,248.480 7.364,245.965 5.570 C 245.156 4.993,242.563 4.823,241.563 5.282 M107.708 5.938 L 107.708 6.667 109.896 6.667 L 112.083 6.667 112.083 12.083 L 112.083 17.500 112.917 17.500 L 113.750 17.500 113.750 12.083 L 113.750 6.667 115.938 6.667 L 118.125 6.667 118.125 5.938 L 118.125 5.208 112.917 5.208 L 107.708 5.208 107.708 5.938 M120.000 11.354 L 120.000 17.500 124.167 17.500 L 128.333 17.500 128.333 16.771 L 128.333 16.042 125.104 16.042 L 121.875 16.042 121.875 13.750 L 121.875 11.458 125.104 11.458 L 128.333 11.458 128.333 10.729 L 128.333 10.000 125.104 10.000 L 121.875 10.000 121.875 8.333 L 121.875 6.667 125.104 6.667 L 128.333 6.667 128.333 5.938 L 128.333 5.208 124.167 5.208 L 120.000 5.208 120.000 11.354 M141.458 5.938 L 141.458 6.667 143.646 6.667 L 145.833 6.667 145.833 12.083 L 145.833 17.500 146.667 17.500 L 147.500 17.500 147.500 12.083 L 147.500 6.667 149.688 6.667 L 151.875 6.667 151.875 5.938 L 151.875 5.208 146.667 5.208 L 141.458 5.208 141.458 5.938 M160.000 11.354 L 160.000 17.500 160.934 17.500 L 161.867 17.500 161.923 12.626 L 161.979 7.752 163.447 10.907 C 165.514 15.349,165.657 15.348,167.766 10.855 L 169.271 7.648 169.327 12.574 L 169.383 17.500 170.316 17.500 L 171.250 17.500 171.250 11.344 L 171.250 5.188 169.957 5.250 L 168.664 5.313 167.211 8.479 C 166.413 10.221,165.706 11.612,165.640 11.571 C 165.574 11.531,164.865 10.085,164.063 8.359 L 162.604 5.221 161.302 5.215 L 160.000 5.208 160.000 11.354 M177.477 5.781 C 176.680 7.851,173.333 17.168,173.333 17.317 C 173.333 17.418,173.748 17.500,174.254 17.500 L 175.174 17.500 175.729 15.833 L 176.284 14.167 178.835 14.167 L 181.386 14.167 181.966 15.833 L 182.547 17.500 183.561 17.500 L 184.576 17.500 183.841 15.469 C 183.436 14.352,182.433 11.586,181.611 9.323 L 180.117 5.208 178.908 5.208 C 177.780 5.208,177.683 5.247,177.477 5.781 M186.458 11.354 L 186.458 17.500 187.392 17.500 L 188.326 17.500 188.382 12.385 L 188.438 7.270 191.138 12.385 L 193.839 17.500 194.940 17.500 L 196.042 17.500 196.042 11.354 L 196.042 5.208 195.212 5.208 L 194.383 5.208 194.327 9.891 L 194.271 14.574 191.803 9.891 L 189.335 5.208 187.897 5.208 L 186.458 5.208 186.458 11.354 M222.577 7.298 C 223.239 8.084,223.424 8.968,223.424 11.354 C 223.424 15.384,221.809 17.244,219.633 15.719 C 218.099 14.645,218.182 7.799,219.740 6.892 C 220.558 6.415,222.009 6.622,222.577 7.298 M233.827 7.298 C 234.489 8.084,234.674 8.968,234.674 11.354 C 234.674 15.384,233.059 17.244,230.883 15.719 C 229.349 14.645,229.432 7.799,230.990 6.892 C 231.808 6.415,233.259 6.622,233.827 7.298 M245.077 7.298 C 245.739 8.084,245.924 8.968,245.924 11.354 C 245.924 15.384,244.309 17.244,242.133 15.719 C 240.599 14.645,240.682 7.799,242.240 6.892 C 243.058 6.415,244.509 6.622,245.077 7.298 M179.882 9.892 C 180.405 11.375,180.833 12.615,180.833 12.648 C 180.833 12.681,179.933 12.708,178.832 12.708 C 177.319 12.708,176.853 12.645,176.924 12.448 C 176.976 12.305,177.422 11.037,177.914 9.631 C 178.407 8.224,178.837 7.101,178.871 7.135 C 178.904 7.168,179.359 8.409,179.882 9.892 " stroke="none" fill="#000000" fill-rule="evenodd"></path></g></svg>