<svg id="svg" xmlns="http://www.w3.org/2000/svg" xmlns:xlink="http://www.w3.org/1999/xlink" width="400" height="225" viewBox="0, 0, 400,225" version="1.1"><g id="svgg"><path id="path0" d="M268.958 44.517 C 242.237 46.502,224.352 63.036,225.734 84.479 C 226.640 98.547,232.372 107.603,244.196 113.652 C 251.248 117.259,257.264 118.803,276.636 121.976 C 297.865 125.453,303.915 129.459,304.009 140.104 C 304.213 163.265,260.684 166.466,232.542 145.360 C 228.607 142.409,225.811 142.290,225.209 145.046 C 224.843 146.727,225.003 166.783,225.389 167.532 C 226.462 169.616,243.695 175.362,254.003 177.072 C 261.764 178.360,273.527 178.922,280.741 178.351 C 312.003 175.875,330.477 155.412,325.192 129.115 C 322.058 113.522,310.758 106.037,282.813 101.043 C 265.173 97.891,264.139 97.681,260.534 96.520 C 253.299 94.192,249.829 91.149,248.343 85.830 C 246.022 77.521,250.221 70.153,259.555 66.158 C 273.465 60.204,298.542 64.355,313.424 75.075 C 316.128 77.023,316.964 77.376,318.506 77.221 C 321.061 76.965,321.042 77.058,321.041 65.064 C 321.039 53.100,321.202 53.804,318.125 52.475 C 304.850 46.740,284.149 43.389,268.958 44.517 M0.000 56.146 L 0.000 65.833 21.354 65.833 L 42.708 65.833 42.724 119.844 C 42.741 177.986,42.679 174.857,43.832 175.718 C 44.728 176.387,62.147 176.387,63.043 175.718 C 64.196 174.857,64.134 177.986,64.151 119.844 L 64.167 65.833 85.469 65.833 C 109.530 65.833,107.973 65.938,108.470 64.271 C 108.816 63.107,108.816 49.184,108.470 48.021 C 107.958 46.302,113.487 46.459,53.385 46.459 L 0.000 46.458 0.000 56.146 M122.709 46.823 C 121.233 47.561,121.360 41.774,121.301 111.059 C 121.243 178.978,121.174 174.822,122.377 175.720 C 122.946 176.145,123.012 176.146,164.651 176.198 C 211.052 176.257,207.389 176.367,208.125 174.896 C 208.589 173.967,208.589 159.158,208.125 158.229 C 207.397 156.775,209.896 156.876,174.531 156.875 L 142.708 156.875 142.708 135.938 L 142.708 115.000 174.531 115.000 C 209.896 114.999,207.397 115.100,208.125 113.646 C 208.589 112.717,208.589 97.908,208.125 96.979 C 207.397 95.525,209.896 95.626,174.531 95.625 L 142.708 95.625 142.708 80.729 L 142.708 65.833 174.531 65.833 C 204.411 65.833,206.399 65.810,207.083 65.468 C 208.426 64.798,208.438 64.716,208.438 56.146 C 208.438 47.576,208.426 47.494,207.083 46.823 C 205.952 46.258,123.839 46.258,122.709 46.823 M333.129 46.823 C 331.972 47.404,331.907 47.899,331.907 56.146 C 331.907 64.393,331.972 64.888,333.129 65.468 C 333.805 65.808,335.292 65.833,355.156 65.833 L 376.458 65.833 376.474 119.844 C 376.491 177.986,376.429 174.857,377.582 175.718 C 378.478 176.387,395.897 176.387,396.793 175.718 C 397.946 174.857,397.884 177.986,397.901 119.844 L 397.917 65.833 398.958 65.833 L 400.000 65.833 400.000 56.146 L 400.000 46.458 366.927 46.459 C 335.856 46.459,333.810 46.481,333.129 46.823 " stroke="none" fill="#040404" fill-rule="evenodd"></path><path id="path1" d="" stroke="none" fill="#080404" fill-rule="evenodd"></path></g></svg>