<svg id="svg" xmlns="http://www.w3.org/2000/svg" xmlns:xlink="http://www.w3.org/1999/xlink" width="400" height="225" viewBox="0, 0, 400,225"><g id="svgg"><path id="path0" d="M1.875 11.660 L 1.875 22.500 3.333 22.500 L 4.792 22.500 4.793 12.969 L 4.794 3.438 9.838 12.969 L 14.881 22.500 16.816 22.500 L 18.750 22.500 18.750 11.667 L 18.750 0.833 17.294 0.833 L 15.838 0.833 15.784 9.373 L 15.729 17.912 11.233 9.425 L 6.738 0.938 4.306 0.879 L 1.875 0.820 1.875 11.660 M62.083 2.083 L 62.083 3.333 68.333 3.333 C 71.771 3.333,74.583 3.376,74.583 3.429 C 74.583 3.481,71.630 7.181,68.021 11.650 L 61.458 19.776 61.458 21.138 L 61.458 22.500 70.000 22.500 L 78.542 22.500 78.542 21.253 L 78.542 20.006 71.795 19.951 L 65.048 19.896 71.683 11.667 L 78.319 3.438 78.326 2.135 L 78.333 0.833 70.208 0.833 L 62.083 0.833 62.083 2.083 M137.601 1.094 C 136.603 3.863,130.181 21.515,130.022 21.927 L 129.802 22.500 131.419 22.500 L 133.035 22.500 134.070 19.480 L 135.104 16.460 139.688 16.460 L 144.271 16.460 145.311 19.480 L 146.351 22.500 147.967 22.500 C 148.856 22.500,149.583 22.430,149.584 22.344 C 149.584 22.258,147.836 17.383,145.701 11.510 L 141.818 0.833 139.757 0.833 C 138.297 0.833,137.668 0.909,137.601 1.094 M141.461 8.646 C 142.407 11.281,143.225 13.555,143.279 13.698 C 143.356 13.900,142.554 13.958,139.688 13.958 C 136.258 13.958,136.007 13.933,136.137 13.594 C 136.215 13.393,137.040 11.100,137.973 8.497 C 138.905 5.894,139.684 3.785,139.705 3.810 C 139.725 3.834,140.516 6.010,141.461 8.646 M28.542 6.028 C 24.019 7.409,21.919 13.610,24.184 18.894 C 26.485 24.263,34.903 24.368,37.516 19.061 C 41.042 11.899,35.530 3.895,28.542 6.028 M48.519 6.324 C 47.877 6.588,47.056 7.014,46.696 7.271 L 46.042 7.737 46.042 6.993 L 46.042 6.250 44.479 6.250 L 42.917 6.250 42.917 14.375 L 42.917 22.500 44.476 22.500 L 46.035 22.500 46.091 16.409 L 46.146 10.318 47.708 9.514 C 49.168 8.763,49.369 8.715,50.763 8.785 C 53.602 8.928,53.777 9.373,53.912 16.823 L 54.016 22.500 55.445 22.500 L 56.875 22.500 56.875 17.017 C 56.875 9.989,56.605 8.498,55.071 7.042 C 53.681 5.723,50.759 5.402,48.519 6.324 M86.526 6.122 C 82.581 7.406,80.439 11.991,81.484 16.917 C 82.601 22.182,88.368 24.430,94.688 22.065 L 95.833 21.637 95.833 20.089 C 95.833 18.364,95.765 18.305,94.631 19.056 C 90.146 22.024,84.962 20.279,84.284 15.573 L 84.141 14.583 90.227 14.583 L 96.312 14.583 96.181 12.725 C 95.849 8.055,93.865 6.001,89.583 5.894 C 88.164 5.858,87.090 5.938,86.526 6.122 M117.708 6.028 C 113.186 7.409,111.085 13.610,113.350 18.894 C 115.652 24.263,124.070 24.368,126.683 19.061 C 130.209 11.899,124.697 3.895,117.708 6.028 M174.859 6.122 C 170.914 7.406,168.772 11.991,169.818 16.917 C 170.935 22.182,176.701 24.430,183.021 22.065 L 184.167 21.637 184.167 20.089 C 184.167 18.364,184.098 18.305,182.964 19.056 C 178.479 22.024,173.295 20.279,172.617 15.573 L 172.474 14.583 178.560 14.583 L 184.646 14.583 184.514 12.725 C 184.182 8.055,182.198 6.001,177.917 5.894 C 176.497 5.858,175.424 5.938,174.859 6.122 M100.417 14.375 L 100.417 22.500 101.979 22.500 L 103.542 22.500 103.542 16.742 C 103.542 10.201,103.359 10.842,105.521 9.781 C 106.645 9.229,106.975 9.167,108.802 9.167 L 110.833 9.167 110.833 7.708 L 110.833 6.250 109.010 6.252 C 107.056 6.254,105.713 6.699,104.220 7.837 L 103.542 8.355 103.542 7.302 L 103.542 6.250 101.979 6.250 L 100.417 6.250 100.417 14.375 M151.792 7.031 C 152.117 7.461,153.529 9.294,154.930 11.105 L 157.477 14.398 154.505 18.188 C 152.871 20.273,151.464 22.096,151.379 22.240 C 151.261 22.440,151.627 22.499,152.956 22.495 L 154.688 22.489 156.899 19.482 L 159.111 16.475 161.343 19.488 L 163.575 22.500 165.459 22.500 C 166.937 22.500,167.298 22.444,167.136 22.240 C 165.295 19.915,161.042 14.352,161.042 14.267 C 161.042 14.166,166.224 7.555,167.040 6.615 C 167.338 6.271,167.253 6.250,165.576 6.250 L 163.795 6.250 161.637 9.159 C 160.450 10.759,159.432 12.068,159.375 12.068 C 159.318 12.068,158.300 10.759,157.113 9.159 L 154.955 6.250 153.078 6.250 L 151.201 6.250 151.792 7.031 M32.770 8.615 C 37.059 10.407,36.083 19.998,31.574 20.372 C 27.822 20.683,25.857 17.813,26.472 12.918 C 26.930 9.270,29.741 7.349,32.770 8.615 M91.110 8.618 C 91.977 8.980,92.840 10.003,93.116 10.996 C 93.563 12.605,93.869 12.500,88.746 12.500 L 84.159 12.500 84.292 11.927 C 84.949 9.090,88.322 7.453,91.110 8.618 M121.937 8.615 C 126.225 10.407,125.249 19.998,120.741 20.372 C 116.988 20.683,115.024 17.813,115.639 12.918 C 116.097 9.270,118.908 7.349,121.937 8.615 M179.444 8.618 C 180.311 8.980,181.173 10.003,181.449 10.996 C 181.896 12.605,182.203 12.500,177.079 12.500 L 172.492 12.500 172.625 11.927 C 173.282 9.090,176.655 7.453,179.444 8.618 " stroke="none" fill="#000000" fill-rule="evenodd"></path></g></svg>