<svg id="svg" xmlns="http://www.w3.org/2000/svg" xmlns:xlink="http://www.w3.org/1999/xlink" width="400" height="225" viewBox="0, 0, 400,225" version="1.1"><g id="svgg"><path id="path0" d="M19.167 79.063 L 19.167 95.417 12.708 95.417 L 6.250 95.417 6.250 103.438 L 6.250 111.458 12.702 111.458 L 19.154 111.458 19.223 145.260 C 19.298 181.960,19.240 180.029,20.439 185.938 C 24.581 206.347,40.411 214.415,67.891 210.121 C 71.398 209.573,76.943 208.408,77.552 208.092 C 77.890 207.916,77.917 207.285,77.917 199.368 L 77.917 190.833 77.224 190.833 C 76.843 190.833,75.882 191.060,75.088 191.337 C 60.618 196.393,48.136 195.397,43.045 188.781 C 38.481 182.850,38.344 181.398,38.337 138.906 L 38.333 111.458 58.125 111.458 L 77.917 111.458 77.917 103.438 L 77.917 95.417 58.125 95.417 L 38.333 95.417 38.333 79.063 L 38.333 62.708 28.750 62.708 L 19.167 62.708 19.167 79.063 M334.792 79.063 L 334.792 95.417 328.333 95.417 L 321.875 95.417 321.875 103.438 L 321.875 111.458 328.327 111.458 L 334.779 111.458 334.848 145.260 C 334.923 181.960,334.865 180.029,336.064 185.938 C 340.206 206.347,356.036 214.415,383.516 210.121 C 387.023 209.573,392.568 208.408,393.177 208.092 C 393.515 207.916,393.542 207.285,393.542 199.368 L 393.542 190.833 392.849 190.833 C 392.468 190.833,391.507 191.060,390.713 191.337 C 376.243 196.393,363.761 195.397,358.670 188.781 C 354.106 182.850,353.969 181.398,353.962 138.906 L 353.958 111.458 373.750 111.458 L 393.542 111.458 393.542 103.438 L 393.542 95.417 373.750 95.417 L 353.958 95.417 353.958 79.063 L 353.958 62.708 344.375 62.708 L 334.792 62.708 334.792 79.063 M141.563 92.527 C 115.723 95.001,97.268 114.011,93.859 141.667 C 89.182 179.611,106.735 205.712,140.237 210.629 C 157.180 213.116,172.350 210.766,192.968 202.462 L 194.166 201.979 194.166 191.510 L 194.167 181.042 193.470 181.042 C 193.024 181.042,192.630 181.201,192.376 181.482 C 188.623 185.646,171.611 192.593,161.574 194.061 C 132.532 198.308,112.903 182.470,112.712 154.635 L 112.708 154.167 154.583 154.167 L 196.458 154.167 196.458 148.073 C 196.457 136.705,195.635 129.541,193.559 122.821 C 186.839 101.064,167.865 90.010,141.563 92.527 M257.204 92.943 C 242.817 94.326,231.274 99.979,224.501 108.958 C 216.079 120.125,216.587 137.280,225.633 147.146 C 231.519 153.567,239.681 156.842,259.479 160.727 C 282.626 165.270,287.083 168.120,287.083 178.378 C 287.083 188.931,279.708 194.305,263.985 195.207 C 250.102 196.003,234.502 191.173,221.516 182.058 C 219.845 180.884,218.999 180.417,218.548 180.417 L 217.917 180.417 217.917 191.144 L 217.917 201.870 219.531 202.681 C 230.753 208.318,244.469 211.357,258.646 211.348 C 277.240 211.337,289.077 207.226,298.353 197.557 C 309.497 185.942,309.842 166.375,299.091 155.719 C 292.698 149.382,286.346 146.882,267.604 143.327 C 244.280 138.903,238.795 135.629,238.207 125.782 C 237.018 105.840,274.783 102.831,299.982 120.860 C 300.656 121.342,301.347 121.667,301.701 121.667 L 302.292 121.667 302.292 111.383 L 302.292 101.100 300.677 100.364 C 287.982 94.579,270.765 91.640,257.204 92.943 M153.021 108.564 C 168.400 110.247,176.592 119.984,177.586 137.760 L 177.688 139.583 145.203 139.583 L 112.719 139.583 112.812 139.010 C 112.863 138.695,113.009 137.734,113.138 136.875 C 116.026 117.524,131.902 106.254,153.021 108.564 " stroke="none" fill="#fcfcfc" fill-rule="evenodd"></path><path id="path1" d="" stroke="none" fill="#000000" fill-rule="evenodd"></path></g></svg>