<svg id="svg" version="1.1" xmlns="http://www.w3.org/2000/svg" xmlns:xlink="http://www.w3.org/1999/xlink" width="400" height="225" viewBox="0, 0, 400,225"><g id="svgg"><path id="path0" d="M70.000 1.246 C 69.828 1.359,69.295 1.453,68.814 1.455 C 68.334 1.457,67.891 1.540,67.829 1.639 C 67.768 1.739,67.340 1.881,66.880 1.954 C 66.419 2.028,66.042 2.181,66.042 2.294 C 66.042 2.407,65.798 2.500,65.501 2.500 C 64.970 2.500,63.713 3.078,63.576 3.385 C 63.538 3.471,63.414 3.542,63.300 3.542 C 62.921 3.542,61.875 4.753,61.875 5.192 C 61.875 5.438,61.740 5.625,61.563 5.625 C 61.317 5.625,61.250 5.912,61.250 6.957 C 61.250 7.949,61.330 8.319,61.563 8.409 C 61.734 8.475,61.875 8.697,61.875 8.902 C 61.875 9.362,62.823 10.417,63.238 10.417 C 63.405 10.417,63.542 10.510,63.542 10.625 C 63.542 10.740,63.674 10.833,63.837 10.833 C 63.999 10.833,64.165 10.933,64.206 11.055 C 64.247 11.177,64.676 11.330,65.161 11.395 C 65.645 11.460,66.042 11.588,66.042 11.679 C 66.042 11.770,66.557 11.909,67.188 11.988 C 67.818 12.067,68.333 12.214,68.333 12.316 C 68.333 12.417,68.843 12.500,69.467 12.500 C 70.090 12.500,70.652 12.584,70.716 12.686 C 70.779 12.789,72.284 12.941,74.061 13.024 C 75.838 13.107,77.292 13.244,77.292 13.328 C 77.292 13.411,78.065 13.540,79.010 13.612 C 79.954 13.685,80.759 13.840,80.798 13.956 C 80.836 14.072,81.074 14.167,81.325 14.167 C 82.107 14.167,83.125 15.279,83.125 16.134 C 83.125 16.654,83.032 16.875,82.813 16.875 C 82.641 16.875,82.500 16.995,82.500 17.143 C 82.500 17.480,81.428 18.125,80.866 18.125 C 80.632 18.125,80.383 18.219,80.313 18.333 C 80.242 18.448,79.867 18.542,79.479 18.542 C 79.092 18.542,78.717 18.635,78.646 18.750 C 78.482 19.014,70.625 19.034,70.625 18.770 C 70.625 18.667,70.180 18.533,69.635 18.473 C 68.126 18.307,65.950 17.868,65.833 17.705 C 65.776 17.625,65.378 17.495,64.948 17.416 C 64.518 17.337,64.167 17.183,64.167 17.074 C 64.167 16.965,63.938 16.875,63.658 16.875 C 63.378 16.875,63.092 16.781,63.021 16.667 C 62.950 16.552,62.523 16.458,62.071 16.458 L 61.250 16.458 61.250 18.525 L 61.250 20.592 62.607 20.737 C 63.353 20.817,64.011 20.958,64.068 21.051 C 64.125 21.143,65.017 21.285,66.049 21.366 C 67.081 21.447,67.976 21.594,68.038 21.694 C 68.184 21.931,80.208 21.931,80.208 21.694 C 80.208 21.594,80.865 21.448,81.667 21.368 C 82.469 21.289,83.125 21.149,83.125 21.056 C 83.125 20.964,83.521 20.835,84.006 20.770 C 84.490 20.705,84.920 20.552,84.961 20.430 C 85.001 20.308,85.261 20.208,85.538 20.208 C 85.815 20.208,86.042 20.115,86.042 20.000 C 86.042 19.885,86.182 19.792,86.354 19.792 C 86.526 19.792,86.854 19.604,87.083 19.375 C 87.313 19.146,87.594 18.958,87.708 18.958 C 87.823 18.958,87.917 18.771,87.917 18.542 C 87.917 18.310,88.056 18.125,88.229 18.125 C 88.401 18.125,88.542 17.994,88.542 17.835 C 88.542 17.675,88.682 17.491,88.854 17.425 C 89.096 17.332,89.167 16.927,89.167 15.632 C 89.167 14.283,89.106 13.958,88.854 13.958 C 88.682 13.958,88.542 13.792,88.542 13.588 C 88.542 13.207,87.863 12.500,87.498 12.500 C 87.384 12.500,87.292 12.414,87.292 12.308 C 87.292 12.203,87.010 12.055,86.667 11.979 C 86.323 11.904,86.042 11.757,86.042 11.653 C 86.042 11.548,85.667 11.403,85.208 11.330 C 84.750 11.257,84.375 11.125,84.375 11.038 C 84.375 10.950,84.070 10.827,83.698 10.764 C 83.326 10.700,82.552 10.555,81.979 10.441 C 81.406 10.327,80.352 10.228,79.635 10.221 C 78.919 10.214,78.333 10.128,78.333 10.029 C 78.333 9.931,76.904 9.783,75.156 9.700 C 73.409 9.618,71.948 9.464,71.910 9.359 C 71.872 9.253,71.426 9.167,70.920 9.167 C 70.414 9.167,70.000 9.085,70.000 8.985 C 70.000 8.885,69.625 8.743,69.167 8.670 C 68.708 8.597,68.333 8.444,68.333 8.331 C 68.333 8.218,68.193 8.125,68.021 8.125 C 67.846 8.125,67.708 7.939,67.708 7.702 C 67.708 7.469,67.568 7.225,67.396 7.159 C 67.045 7.024,66.965 6.458,67.297 6.458 C 67.414 6.458,67.598 6.227,67.706 5.943 C 67.816 5.655,68.135 5.370,68.430 5.296 C 68.721 5.223,68.958 5.080,68.958 4.977 C 68.958 4.875,69.185 4.792,69.462 4.792 C 69.739 4.792,70.004 4.674,70.052 4.531 C 70.166 4.188,78.044 4.047,80.104 4.352 C 82.274 4.673,82.997 4.826,83.234 5.013 C 83.352 5.106,83.938 5.247,84.536 5.326 C 85.135 5.405,85.625 5.552,85.625 5.652 C 85.625 5.752,86.141 5.833,86.771 5.833 L 87.917 5.833 87.917 4.085 C 87.917 2.091,88.011 2.192,85.922 1.974 C 85.128 1.892,84.385 1.751,84.271 1.661 C 83.713 1.224,70.612 0.844,70.000 1.246 M280.938 1.250 C 280.867 1.365,280.299 1.458,279.675 1.458 C 279.052 1.458,278.542 1.539,278.542 1.637 C 278.542 1.735,277.928 1.872,277.179 1.942 C 275.385 2.110,275.417 2.074,275.417 3.896 L 275.417 5.476 277.130 5.359 C 278.072 5.294,278.877 5.140,278.918 5.017 C 278.959 4.893,279.248 4.792,279.559 4.792 C 279.870 4.792,280.230 4.686,280.359 4.558 C 280.785 4.132,288.763 4.039,289.587 4.450 C 289.964 4.638,290.399 4.792,290.553 4.792 C 290.707 4.792,290.833 4.885,290.833 5.000 C 290.833 5.115,290.974 5.208,291.146 5.208 C 291.318 5.208,291.458 5.349,291.458 5.521 C 291.458 5.693,291.599 5.833,291.771 5.833 C 292.010 5.833,292.083 6.097,292.083 6.957 C 292.083 7.763,291.995 8.114,291.771 8.200 C 291.599 8.266,291.458 8.451,291.458 8.610 C 291.458 8.770,291.224 9.076,290.938 9.291 C 290.651 9.506,290.414 9.777,290.411 9.893 C 290.408 10.009,290.010 10.287,289.526 10.510 C 289.042 10.733,288.458 11.091,288.229 11.306 C 288.000 11.520,287.461 11.894,287.031 12.136 C 286.602 12.378,286.250 12.646,286.250 12.730 C 286.250 12.815,285.969 12.945,285.625 13.021 C 285.281 13.096,285.000 13.222,285.000 13.299 C 285.000 13.467,284.084 13.880,283.281 14.073 C 282.966 14.150,282.708 14.288,282.708 14.381 C 282.708 14.474,282.427 14.612,282.083 14.688 C 281.740 14.763,281.458 14.911,281.458 15.017 C 281.458 15.122,281.318 15.208,281.146 15.208 C 280.974 15.208,280.833 15.295,280.833 15.400 C 280.833 15.506,280.552 15.654,280.208 15.729 C 279.865 15.805,279.583 15.933,279.583 16.015 C 279.583 16.097,279.068 16.339,278.438 16.553 C 277.807 16.767,277.292 17.014,277.292 17.101 C 277.292 17.187,277.010 17.320,276.667 17.396 C 276.323 17.471,276.042 17.599,276.042 17.679 C 276.042 17.760,275.760 17.931,275.417 18.061 C 274.798 18.295,274.792 18.313,274.792 19.878 L 274.792 21.458 287.292 21.458 L 299.792 21.458 299.792 20.208 L 299.792 18.958 290.781 18.952 C 281.367 18.945,280.507 18.843,283.490 18.091 C 283.977 17.968,284.375 17.785,284.375 17.684 C 284.375 17.583,284.484 17.500,284.617 17.500 C 284.750 17.500,285.289 17.229,285.815 16.898 C 286.341 16.567,287.146 16.169,287.604 16.014 C 288.063 15.858,288.484 15.684,288.542 15.626 C 288.599 15.568,289.115 15.286,289.688 15.000 C 290.260 14.714,290.760 14.409,290.799 14.323 C 290.837 14.237,291.001 14.167,291.163 14.167 C 291.326 14.167,291.458 14.080,291.458 13.975 C 291.458 13.869,291.740 13.721,292.083 13.646 C 292.427 13.570,292.708 13.432,292.708 13.339 C 292.708 13.246,292.943 13.111,293.229 13.039 C 293.516 12.968,293.750 12.817,293.750 12.704 C 293.750 12.592,293.891 12.500,294.063 12.500 C 294.234 12.500,294.375 12.359,294.375 12.188 C 294.375 12.016,294.516 11.875,294.688 11.875 C 294.859 11.875,295.000 11.802,295.000 11.712 C 295.000 11.623,295.281 11.444,295.625 11.314 C 295.969 11.184,296.250 10.929,296.250 10.747 C 296.250 10.565,296.391 10.417,296.563 10.417 C 296.734 10.417,296.875 10.276,296.875 10.104 C 296.875 9.932,297.016 9.792,297.188 9.792 C 297.365 9.792,297.500 9.605,297.500 9.360 C 297.500 9.123,297.641 8.788,297.813 8.616 C 298.034 8.395,298.125 7.855,298.125 6.771 C 298.125 5.686,298.034 5.147,297.813 4.926 C 297.641 4.754,297.500 4.458,297.500 4.268 C 297.500 4.075,297.223 3.818,296.875 3.686 C 296.531 3.556,296.250 3.330,296.250 3.183 C 296.250 3.037,296.109 2.917,295.938 2.917 C 295.766 2.917,295.625 2.846,295.625 2.759 C 295.625 2.568,294.316 2.089,293.385 1.939 C 293.013 1.879,292.708 1.746,292.708 1.644 C 292.708 1.542,292.286 1.458,291.771 1.458 C 291.255 1.458,290.833 1.365,290.833 1.250 C 290.833 1.117,289.067 1.042,285.950 1.042 C 282.919 1.042,281.017 1.121,280.938 1.250 M314.688 1.250 C 314.617 1.365,314.189 1.458,313.738 1.458 C 313.286 1.458,312.917 1.540,312.917 1.639 C 312.917 1.739,312.528 1.872,312.053 1.936 C 311.578 2.000,311.133 2.140,311.064 2.248 C 310.994 2.356,310.727 2.510,310.469 2.590 C 310.211 2.671,310.000 2.824,310.000 2.931 C 310.000 3.038,309.859 3.125,309.688 3.125 C 309.516 3.125,309.375 3.266,309.375 3.438 C 309.375 3.609,309.234 3.750,309.063 3.750 C 308.891 3.750,308.750 3.881,308.750 4.040 C 308.750 4.200,308.609 4.384,308.438 4.450 C 308.266 4.516,308.125 4.714,308.125 4.889 C 308.125 5.065,307.984 5.208,307.813 5.208 C 307.622 5.208,307.500 5.403,307.500 5.707 C 307.500 5.981,307.359 6.259,307.188 6.325 C 306.990 6.401,306.875 6.721,306.875 7.196 C 306.875 7.609,306.734 8.087,306.563 8.259 C 306.314 8.508,306.250 9.184,306.250 11.584 C 306.250 14.070,306.305 14.617,306.563 14.716 C 306.775 14.798,306.875 15.131,306.875 15.758 C 306.875 16.385,306.975 16.718,307.188 16.800 C 307.359 16.866,307.500 17.144,307.500 17.418 C 307.500 17.722,307.622 17.917,307.813 17.917 C 307.984 17.917,308.125 18.036,308.125 18.183 C 308.125 18.482,308.852 19.167,309.169 19.167 C 309.282 19.167,309.375 19.307,309.375 19.479 C 309.375 19.651,309.516 19.792,309.688 19.792 C 309.859 19.792,310.000 19.872,310.000 19.970 C 310.000 20.322,312.145 21.254,313.255 21.384 C 313.878 21.457,314.436 21.598,314.497 21.696 C 314.644 21.933,323.542 21.928,323.542 21.691 C 323.542 21.589,324.057 21.442,324.688 21.363 C 325.318 21.284,325.833 21.133,325.833 21.027 C 325.833 20.920,326.044 20.833,326.302 20.833 C 326.560 20.832,327.052 20.646,327.396 20.419 C 327.740 20.192,328.207 19.887,328.435 19.743 C 328.804 19.507,329.085 19.227,329.788 18.394 C 329.905 18.256,330.000 17.998,330.000 17.821 C 330.000 17.645,330.141 17.500,330.313 17.500 C 330.518 17.500,330.625 17.294,330.625 16.897 C 330.625 16.554,330.759 16.243,330.938 16.175 C 331.171 16.085,331.250 15.711,331.250 14.688 C 331.250 13.664,331.329 13.290,331.563 13.200 C 331.804 13.108,331.875 12.706,331.875 11.436 C 331.875 10.113,331.814 9.792,331.563 9.792 C 331.314 9.792,331.250 9.491,331.250 8.333 C 331.250 7.176,331.186 6.875,330.938 6.875 C 330.732 6.875,330.625 6.669,330.625 6.272 C 330.625 5.929,330.491 5.618,330.313 5.550 C 330.141 5.484,330.000 5.286,330.000 5.111 C 330.000 4.935,329.930 4.791,329.844 4.791 C 329.758 4.791,329.500 4.510,329.271 4.167 C 329.042 3.824,328.780 3.543,328.689 3.542 C 328.598 3.542,328.271 3.307,327.962 3.021 C 327.653 2.734,327.293 2.500,327.161 2.500 C 327.030 2.500,326.654 2.360,326.326 2.189 C 325.998 2.018,325.571 1.877,325.377 1.876 C 325.183 1.876,324.967 1.781,324.896 1.667 C 324.825 1.552,324.497 1.458,324.167 1.458 C 323.836 1.458,323.508 1.365,323.438 1.250 C 323.264 0.969,314.861 0.969,314.688 1.250 M346.771 1.250 C 346.700 1.365,346.273 1.458,345.821 1.458 C 345.369 1.458,345.000 1.540,345.000 1.639 C 345.000 1.739,344.611 1.872,344.137 1.936 C 343.662 2.000,343.216 2.129,343.147 2.224 C 343.078 2.318,342.669 2.575,342.240 2.793 C 341.810 3.012,341.458 3.316,341.458 3.470 C 341.458 3.624,341.318 3.750,341.146 3.750 C 340.974 3.750,340.833 3.881,340.833 4.040 C 340.833 4.200,340.693 4.384,340.521 4.450 C 340.349 4.516,340.208 4.714,340.208 4.889 C 340.208 5.065,340.068 5.208,339.896 5.208 C 339.705 5.208,339.583 5.403,339.583 5.707 C 339.583 5.981,339.443 6.259,339.271 6.325 C 339.067 6.404,338.958 6.728,338.958 7.263 C 338.958 7.797,338.850 8.122,338.646 8.200 C 338.387 8.300,338.333 8.872,338.333 11.556 C 338.333 14.293,338.381 14.792,338.646 14.792 C 338.878 14.792,338.958 15.035,338.958 15.736 C 338.958 16.383,339.057 16.717,339.271 16.800 C 339.443 16.866,339.583 17.144,339.583 17.418 C 339.583 17.722,339.705 17.917,339.896 17.917 C 340.068 17.917,340.208 18.036,340.208 18.183 C 340.208 18.482,340.935 19.167,341.252 19.167 C 341.366 19.167,341.458 19.267,341.458 19.390 C 341.458 19.678,341.988 20.208,342.277 20.208 C 342.400 20.208,342.500 20.295,342.500 20.400 C 342.500 20.506,342.781 20.654,343.125 20.729 C 343.469 20.805,343.750 20.945,343.750 21.042 C 343.750 21.138,344.361 21.282,345.107 21.362 C 345.853 21.442,346.515 21.590,346.578 21.691 C 346.726 21.932,355.625 21.931,355.625 21.691 C 355.625 21.589,356.141 21.442,356.771 21.363 C 357.401 21.284,357.917 21.133,357.917 21.027 C 357.917 20.920,358.128 20.833,358.385 20.832 C 358.839 20.831,359.123 20.678,360.668 19.598 C 361.355 19.117,361.684 18.688,361.994 17.865 C 362.070 17.664,362.262 17.500,362.420 17.500 C 362.599 17.500,362.708 17.272,362.708 16.897 C 362.708 16.554,362.843 16.243,363.021 16.175 C 363.255 16.085,363.333 15.711,363.333 14.688 C 363.333 13.664,363.412 13.290,363.646 13.200 C 363.885 13.109,363.958 12.716,363.958 11.534 C 363.958 10.351,363.885 9.959,363.646 9.867 C 363.413 9.778,363.333 9.406,363.333 8.409 C 363.333 7.411,363.254 7.040,363.021 6.950 C 362.847 6.883,362.708 6.574,362.708 6.250 C 362.708 5.926,362.570 5.617,362.396 5.550 C 362.224 5.484,362.083 5.286,362.083 5.111 C 362.083 4.935,361.943 4.792,361.771 4.792 C 361.599 4.792,361.460 4.674,361.462 4.531 C 361.465 4.224,359.586 2.505,359.243 2.502 C 359.112 2.501,358.737 2.360,358.409 2.189 C 358.081 2.018,357.654 1.877,357.460 1.876 C 357.266 1.876,357.050 1.781,356.979 1.667 C 356.908 1.552,356.580 1.458,356.250 1.458 C 355.920 1.458,355.592 1.365,355.521 1.250 C 355.347 0.969,346.945 0.969,346.771 1.250 M378.750 1.250 C 378.750 1.365,378.375 1.458,377.917 1.458 C 377.458 1.458,377.083 1.540,377.083 1.639 C 377.083 1.739,376.695 1.872,376.220 1.936 C 375.745 2.000,375.300 2.140,375.230 2.248 C 375.161 2.356,374.908 2.505,374.669 2.579 C 374.116 2.752,372.917 3.815,372.917 4.133 C 372.917 4.266,372.776 4.375,372.604 4.375 C 372.431 4.375,372.292 4.560,372.292 4.792 C 372.292 5.023,372.153 5.208,371.979 5.208 C 371.785 5.208,371.667 5.405,371.667 5.729 C 371.667 6.053,371.549 6.250,371.354 6.250 C 371.124 6.250,371.042 6.491,371.042 7.165 C 371.042 7.787,370.941 8.119,370.729 8.200 C 370.470 8.300,370.417 8.872,370.417 11.556 C 370.417 14.293,370.465 14.792,370.729 14.792 C 370.961 14.792,371.042 15.035,371.042 15.736 C 371.042 16.383,371.140 16.717,371.354 16.800 C 371.526 16.866,371.667 17.144,371.667 17.418 C 371.667 17.722,371.788 17.917,371.979 17.917 C 372.151 17.917,372.292 18.044,372.292 18.200 C 372.292 18.356,372.526 18.659,372.813 18.874 C 373.099 19.090,373.333 19.384,373.333 19.529 C 373.333 19.673,373.474 19.792,373.646 19.792 C 373.818 19.792,373.958 19.885,373.958 20.000 C 373.958 20.115,374.099 20.208,374.271 20.208 C 374.443 20.208,374.583 20.295,374.583 20.400 C 374.583 20.506,374.865 20.654,375.208 20.729 C 375.552 20.805,375.833 20.945,375.833 21.042 C 375.833 21.138,376.444 21.282,377.190 21.362 C 377.937 21.442,378.599 21.590,378.661 21.691 C 378.810 21.932,387.708 21.931,387.708 21.691 C 387.708 21.589,388.224 21.442,388.854 21.363 C 389.484 21.284,390.000 21.133,390.000 21.027 C 390.000 20.920,390.144 20.833,390.321 20.833 C 391.256 20.833,394.167 18.530,394.167 17.789 C 394.167 17.630,394.307 17.500,394.479 17.500 C 394.685 17.500,394.792 17.294,394.792 16.897 C 394.792 16.554,394.926 16.243,395.104 16.175 C 395.337 16.085,395.417 15.714,395.417 14.720 C 395.417 13.787,395.511 13.306,395.729 13.125 C 395.952 12.940,396.042 12.452,396.042 11.426 C 396.042 10.339,395.965 9.958,395.729 9.867 C 395.496 9.778,395.417 9.406,395.417 8.409 C 395.417 7.411,395.337 7.040,395.104 6.950 C 394.930 6.883,394.792 6.574,394.792 6.250 C 394.792 5.926,394.653 5.617,394.479 5.550 C 394.307 5.484,394.167 5.286,394.167 5.111 C 394.167 4.935,394.026 4.792,393.854 4.792 C 393.682 4.792,393.538 4.674,393.533 4.531 C 393.528 4.388,393.232 4.036,392.876 3.750 C 392.520 3.464,392.081 3.065,391.901 2.865 C 391.721 2.664,391.426 2.500,391.245 2.500 C 391.065 2.500,390.828 2.418,390.719 2.318 C 390.610 2.219,389.958 1.976,389.271 1.780 C 388.583 1.584,387.858 1.338,387.659 1.233 C 387.155 0.966,378.750 0.983,378.750 1.250 M0.000 2.813 L 0.000 4.167 4.167 4.167 L 8.333 4.167 8.333 12.813 L 8.333 21.458 11.042 21.458 L 13.750 21.458 13.750 12.813 L 13.750 4.167 20.000 4.167 L 26.250 4.167 26.250 2.813 L 26.250 1.458 13.125 1.458 L 0.000 1.458 0.000 2.813 M30.929 1.719 C 30.874 1.862,30.853 6.339,30.883 11.667 L 30.938 21.354 43.073 21.408 L 55.208 21.462 55.208 20.210 L 55.208 18.958 46.042 18.958 L 36.875 18.958 36.875 15.417 L 36.875 11.875 46.042 11.875 L 55.208 11.875 55.208 10.521 L 55.208 9.167 46.042 9.167 L 36.875 9.167 36.875 6.667 L 36.875 4.167 46.042 4.167 L 55.208 4.167 55.208 2.813 L 55.208 1.458 43.118 1.458 C 33.639 1.458,31.007 1.515,30.929 1.719 M92.083 2.813 L 92.083 4.167 98.333 4.167 L 104.583 4.167 104.583 12.813 L 104.583 21.458 107.188 21.458 L 109.792 21.458 109.792 12.813 L 109.792 4.167 116.042 4.167 L 122.292 4.167 122.292 2.813 L 122.292 1.458 107.188 1.458 L 92.083 1.458 92.083 2.813 M145.000 11.458 L 145.000 21.458 147.917 21.458 L 150.833 21.458 150.833 13.958 C 150.833 7.431,150.874 6.458,151.146 6.458 C 151.321 6.458,151.458 6.644,151.458 6.882 C 151.458 7.114,151.599 7.359,151.771 7.425 C 151.943 7.491,152.083 7.675,152.083 7.835 C 152.083 7.994,152.224 8.125,152.396 8.125 C 152.568 8.125,152.708 8.266,152.708 8.438 C 152.708 8.609,152.802 8.750,152.917 8.750 C 153.031 8.750,153.125 8.894,153.125 9.069 C 153.125 9.245,153.266 9.442,153.438 9.508 C 153.609 9.574,153.750 9.759,153.750 9.918 C 153.750 10.078,153.891 10.208,154.063 10.208 C 154.234 10.208,154.375 10.349,154.375 10.521 C 154.375 10.693,154.516 10.833,154.688 10.833 C 154.859 10.833,155.000 10.974,155.000 11.146 C 155.000 11.318,155.141 11.458,155.313 11.458 C 155.488 11.458,155.625 11.644,155.625 11.882 C 155.625 12.114,155.766 12.359,155.938 12.425 C 156.109 12.491,156.250 12.641,156.250 12.759 C 156.250 12.877,156.466 13.173,156.730 13.418 C 156.994 13.663,157.273 14.025,157.349 14.223 C 157.425 14.421,157.584 14.583,157.702 14.583 C 157.820 14.583,157.917 14.724,157.917 14.896 C 157.917 15.068,158.057 15.208,158.229 15.208 C 158.401 15.208,158.542 15.349,158.542 15.521 C 158.542 15.693,158.682 15.833,158.854 15.833 C 159.026 15.833,159.167 15.927,159.167 16.042 C 159.167 17.023,163.925 16.039,163.951 15.052 C 163.955 14.909,164.052 14.792,164.167 14.792 C 164.281 14.792,164.375 14.651,164.375 14.479 C 164.375 14.307,164.516 14.167,164.688 14.167 C 164.859 14.167,165.000 14.026,165.000 13.854 C 165.000 13.682,165.141 13.542,165.313 13.542 C 165.484 13.542,165.625 13.401,165.625 13.229 C 165.625 13.057,165.766 12.917,165.938 12.917 C 166.111 12.917,166.250 12.731,166.250 12.500 C 166.250 12.269,166.389 12.083,166.563 12.083 C 166.734 12.083,166.875 11.993,166.875 11.882 C 166.875 11.772,167.133 11.402,167.448 11.060 C 168.396 10.033,168.542 9.824,168.542 9.488 C 168.542 9.311,168.682 9.167,168.854 9.167 C 169.026 9.167,169.167 9.026,169.167 8.854 C 169.167 8.682,169.307 8.542,169.479 8.542 C 169.651 8.542,169.792 8.411,169.792 8.251 C 169.792 8.092,169.932 7.907,170.104 7.841 C 170.276 7.775,170.417 7.578,170.417 7.402 C 170.417 7.227,170.557 7.083,170.729 7.083 C 170.901 7.083,171.042 6.953,171.042 6.793 C 171.042 6.634,171.182 6.449,171.354 6.383 C 171.628 6.278,171.667 7.193,171.667 13.861 L 171.667 21.458 174.583 21.458 L 177.500 21.458 177.500 11.458 L 177.500 1.458 173.646 1.458 C 171.215 1.458,169.792 1.535,169.792 1.667 C 169.792 1.781,169.651 1.875,169.479 1.875 C 169.307 1.875,169.167 1.973,169.167 2.093 C 169.167 2.213,168.932 2.529,168.646 2.794 C 168.359 3.060,168.125 3.373,168.125 3.491 C 168.125 3.609,167.984 3.759,167.813 3.825 C 167.641 3.891,167.500 4.079,167.500 4.242 C 167.500 4.405,167.359 4.593,167.188 4.659 C 167.016 4.725,166.875 4.922,166.875 5.098 C 166.875 5.273,166.734 5.417,166.563 5.417 C 166.389 5.417,166.250 5.602,166.250 5.833 C 166.250 6.065,166.111 6.250,165.938 6.250 C 165.766 6.250,165.625 6.391,165.625 6.563 C 165.625 6.734,165.484 6.875,165.313 6.875 C 165.141 6.875,165.000 6.981,165.000 7.112 C 165.000 7.242,164.766 7.565,164.479 7.831 C 164.193 8.096,163.958 8.449,163.958 8.614 C 163.958 8.779,163.818 8.968,163.646 9.034 C 163.474 9.100,163.333 9.297,163.333 9.473 C 163.333 9.648,163.193 9.792,163.021 9.792 C 162.849 9.792,162.708 9.922,162.708 10.082 C 162.708 10.241,162.568 10.426,162.396 10.492 C 162.224 10.558,162.083 10.745,162.083 10.907 C 162.083 11.069,161.872 11.258,161.615 11.327 C 160.950 11.505,160.833 11.490,160.833 11.222 C 160.833 11.092,160.599 10.768,160.313 10.503 C 160.026 10.237,159.792 9.922,159.792 9.802 C 159.792 9.682,159.651 9.583,159.479 9.583 C 159.306 9.583,159.167 9.398,159.167 9.167 C 159.167 8.935,159.028 8.750,158.854 8.750 C 158.682 8.750,158.542 8.606,158.542 8.431 C 158.542 8.255,158.401 8.058,158.229 7.992 C 158.057 7.926,157.917 7.752,157.917 7.604 C 157.917 7.457,157.776 7.282,157.604 7.216 C 157.432 7.150,157.292 6.953,157.292 6.777 C 157.292 6.602,157.151 6.458,156.979 6.458 C 156.807 6.458,156.667 6.352,156.667 6.222 C 156.667 6.092,156.432 5.768,156.146 5.503 C 155.859 5.237,155.625 4.932,155.625 4.824 C 155.625 4.716,155.484 4.574,155.313 4.508 C 155.141 4.442,155.000 4.245,155.000 4.069 C 155.000 3.894,154.859 3.750,154.688 3.750 C 154.516 3.750,154.375 3.609,154.375 3.438 C 154.375 3.266,154.234 3.125,154.063 3.125 C 153.891 3.125,153.750 2.984,153.750 2.813 C 153.750 2.641,153.609 2.500,153.438 2.500 C 153.266 2.500,153.125 2.363,153.125 2.195 C 153.125 1.592,152.314 1.458,148.660 1.458 L 145.000 1.458 145.000 11.458 M195.417 1.662 C 195.417 1.779,195.276 1.875,195.104 1.875 C 194.932 1.875,194.792 2.052,194.792 2.269 C 194.792 2.486,194.651 2.718,194.479 2.784 C 194.307 2.850,194.167 3.037,194.167 3.200 C 194.167 3.364,194.026 3.551,193.854 3.617 C 193.682 3.683,193.542 3.927,193.542 4.160 C 193.542 4.397,193.404 4.583,193.229 4.583 C 193.057 4.583,192.917 4.761,192.917 4.978 C 192.917 5.195,192.776 5.426,192.604 5.492 C 192.432 5.558,192.292 5.802,192.292 6.035 C 192.292 6.268,192.198 6.458,192.083 6.458 C 191.969 6.458,191.875 6.649,191.875 6.882 C 191.875 7.114,191.734 7.359,191.563 7.425 C 191.391 7.491,191.250 7.665,191.250 7.812 C 191.250 7.960,191.109 8.134,190.938 8.200 C 190.766 8.266,190.625 8.511,190.625 8.743 C 190.625 8.981,190.488 9.167,190.313 9.167 C 190.118 9.167,190.000 9.363,190.000 9.688 C 190.000 10.012,189.882 10.208,189.688 10.208 C 189.512 10.208,189.375 10.394,189.375 10.632 C 189.375 10.864,189.234 11.109,189.063 11.175 C 188.891 11.241,188.750 11.425,188.750 11.585 C 188.750 11.744,188.658 11.875,188.546 11.875 C 188.433 11.875,188.282 12.109,188.211 12.396 C 188.139 12.682,187.996 12.917,187.894 12.917 C 187.792 12.917,187.708 13.151,187.708 13.438 C 187.708 13.762,187.590 13.958,187.396 13.958 C 187.222 13.958,187.083 14.144,187.083 14.375 C 187.083 14.606,186.944 14.792,186.771 14.792 C 186.597 14.792,186.458 14.977,186.458 15.208 C 186.458 15.440,186.319 15.625,186.146 15.625 C 185.974 15.625,185.833 15.802,185.833 16.019 C 185.833 16.236,185.693 16.468,185.521 16.534 C 185.349 16.600,185.208 16.834,185.208 17.055 C 185.208 17.275,185.068 17.509,184.896 17.575 C 184.724 17.641,184.583 17.886,184.583 18.118 C 184.583 18.351,184.490 18.542,184.375 18.542 C 184.260 18.542,184.167 18.672,184.167 18.832 C 184.167 18.991,184.026 19.176,183.854 19.242 C 183.682 19.308,183.542 19.552,183.542 19.785 C 183.542 20.022,183.404 20.208,183.229 20.208 C 183.021 20.208,182.917 20.417,182.917 20.833 L 182.917 21.458 185.833 21.458 C 188.611 21.458,188.750 21.438,188.750 21.042 C 188.750 20.810,188.889 20.625,189.063 20.625 C 189.236 20.625,189.375 20.440,189.375 20.208 C 189.375 19.977,189.514 19.792,189.688 19.792 C 189.859 19.792,190.000 19.614,190.000 19.397 C 190.000 19.180,190.141 18.949,190.313 18.883 C 190.484 18.817,190.625 18.583,190.625 18.362 C 190.625 18.142,190.766 17.907,190.938 17.841 C 191.109 17.775,191.250 17.578,191.250 17.402 C 191.250 17.227,191.438 16.896,191.667 16.667 C 192.210 16.123,206.042 16.001,206.042 16.540 C 206.042 16.700,206.182 16.884,206.354 16.950 C 206.526 17.016,206.667 17.261,206.667 17.493 C 206.667 17.731,206.804 17.917,206.979 17.917 C 207.156 17.917,207.292 18.104,207.292 18.348 C 207.292 18.586,207.409 18.910,207.552 19.070 C 208.195 19.787,208.333 20.001,208.333 20.281 C 208.333 20.446,208.474 20.634,208.646 20.700 C 208.818 20.766,208.958 20.964,208.958 21.139 C 208.958 21.412,209.427 21.458,212.188 21.458 C 214.919 21.458,215.417 21.410,215.417 21.146 C 215.417 20.974,215.323 20.833,215.208 20.833 C 215.094 20.833,215.000 20.646,215.000 20.417 C 215.000 20.185,214.861 20.000,214.688 20.000 C 214.512 20.000,214.375 19.814,214.375 19.577 C 214.375 19.344,214.234 19.100,214.063 19.034 C 213.891 18.968,213.750 18.736,213.750 18.519 C 213.750 18.302,213.609 18.125,213.438 18.125 C 213.264 18.125,213.125 17.940,213.125 17.708 C 213.125 17.477,212.986 17.292,212.813 17.292 C 212.618 17.292,212.500 17.095,212.500 16.771 C 212.500 16.447,212.382 16.250,212.188 16.250 C 211.993 16.250,211.875 16.053,211.875 15.729 C 211.875 15.443,211.781 15.208,211.667 15.208 C 211.552 15.208,211.458 15.078,211.458 14.918 C 211.458 14.759,211.318 14.574,211.146 14.508 C 210.974 14.442,210.833 14.198,210.833 13.965 C 210.833 13.728,210.696 13.542,210.521 13.542 C 210.326 13.542,210.208 13.345,210.208 13.021 C 210.208 12.697,210.090 12.500,209.896 12.500 C 209.721 12.500,209.583 12.314,209.583 12.077 C 209.583 11.844,209.443 11.600,209.271 11.534 C 209.099 11.468,208.958 11.280,208.958 11.117 C 208.958 10.954,208.818 10.766,208.646 10.700 C 208.474 10.634,208.333 10.403,208.333 10.186 C 208.333 9.969,208.193 9.792,208.021 9.792 C 207.826 9.792,207.708 9.595,207.708 9.271 C 207.708 8.984,207.615 8.750,207.500 8.750 C 207.385 8.750,207.292 8.606,207.292 8.431 C 207.292 8.255,207.151 8.058,206.979 7.992 C 206.807 7.926,206.667 7.705,206.667 7.500 C 206.667 7.295,206.526 7.074,206.354 7.008 C 206.182 6.942,206.042 6.745,206.042 6.569 C 206.042 6.394,205.901 6.250,205.729 6.250 C 205.535 6.250,205.417 6.053,205.417 5.729 C 205.417 5.405,205.299 5.208,205.104 5.208 C 204.910 5.208,204.792 5.012,204.792 4.688 C 204.792 4.363,204.674 4.167,204.479 4.167 C 204.307 4.167,204.167 4.019,204.167 3.839 C 204.167 3.659,204.049 3.381,203.906 3.222 C 203.300 2.546,203.164 2.334,203.092 1.959 C 203.004 1.504,195.417 1.210,195.417 1.662 M220.208 11.458 L 220.208 21.458 223.229 21.458 L 226.250 21.458 226.250 13.646 C 226.250 6.840,226.290 5.833,226.563 5.833 C 226.734 5.833,226.875 5.974,226.875 6.146 C 226.875 6.318,227.016 6.458,227.188 6.458 C 227.359 6.458,227.500 6.559,227.500 6.682 C 227.500 6.970,228.030 7.500,228.318 7.500 C 228.441 7.500,228.542 7.641,228.542 7.813 C 228.542 7.984,228.682 8.125,228.854 8.125 C 229.026 8.125,229.167 8.266,229.167 8.438 C 229.167 8.609,229.307 8.750,229.479 8.750 C 229.651 8.750,229.792 8.894,229.792 9.069 C 229.792 9.245,229.932 9.442,230.104 9.508 C 230.276 9.574,230.417 9.759,230.417 9.918 C 230.417 10.078,230.557 10.208,230.729 10.208 C 230.901 10.208,231.042 10.312,231.042 10.439 C 231.042 10.723,234.092 13.750,234.378 13.750 C 234.491 13.750,234.583 13.938,234.583 14.167 C 234.583 14.398,234.722 14.583,234.896 14.583 C 235.068 14.583,235.208 14.724,235.208 14.896 C 235.208 15.068,235.302 15.208,235.417 15.208 C 235.531 15.208,235.625 15.349,235.625 15.521 C 235.625 15.693,235.766 15.833,235.938 15.833 C 236.109 15.833,236.250 15.974,236.250 16.146 C 236.250 16.318,236.391 16.458,236.563 16.458 C 236.734 16.458,236.875 16.555,236.875 16.674 C 236.875 16.792,237.531 17.546,238.333 18.348 C 239.135 19.150,239.792 19.897,239.792 20.007 C 239.792 20.118,239.932 20.208,240.104 20.208 C 240.276 20.208,240.417 20.349,240.417 20.521 C 240.417 20.693,240.557 20.833,240.729 20.833 C 240.901 20.833,241.042 20.974,241.042 21.146 C 241.042 21.411,241.574 21.458,244.583 21.458 L 248.125 21.458 248.125 11.458 L 248.125 1.458 245.521 1.458 L 242.917 1.458 242.917 8.847 L 242.917 16.235 241.255 14.576 C 240.341 13.663,239.498 12.917,239.380 12.917 C 239.263 12.917,239.167 12.763,239.167 12.576 C 239.167 12.389,238.932 12.018,238.646 11.753 C 238.359 11.487,238.125 11.172,238.125 11.052 C 238.125 10.932,237.984 10.833,237.813 10.833 C 237.641 10.833,237.500 10.693,237.500 10.521 C 237.500 10.349,237.359 10.208,237.188 10.208 C 237.016 10.208,236.875 10.068,236.875 9.896 C 236.875 9.724,236.734 9.583,236.563 9.583 C 236.391 9.583,236.250 9.490,236.250 9.375 C 236.250 9.260,235.734 8.655,235.104 8.030 C 234.474 7.405,233.958 6.795,233.958 6.676 C 233.958 6.556,233.818 6.458,233.646 6.458 C 233.474 6.458,233.333 6.318,233.333 6.146 C 233.333 5.974,233.193 5.833,233.021 5.833 C 232.849 5.833,232.708 5.693,232.708 5.521 C 232.708 5.349,232.568 5.208,232.396 5.208 C 232.224 5.208,232.083 5.068,232.083 4.896 C 232.083 4.724,231.987 4.583,231.868 4.583 C 231.750 4.583,231.595 4.430,231.523 4.242 C 231.451 4.054,230.854 3.351,230.197 2.680 L 229.002 1.458 224.605 1.458 L 220.208 1.458 220.208 11.458 M322.741 4.792 C 323.299 5.135,323.849 5.417,323.961 5.417 C 324.074 5.417,324.167 5.557,324.167 5.729 C 324.167 5.901,324.307 6.042,324.479 6.042 C 324.674 6.042,324.792 6.238,324.792 6.563 C 324.792 6.887,324.910 7.083,325.104 7.083 C 325.350 7.083,325.417 7.373,325.417 8.438 C 325.417 9.201,325.507 9.792,325.625 9.792 C 325.746 9.792,325.833 10.482,325.833 11.446 C 325.833 12.356,325.740 13.158,325.625 13.229 C 325.510 13.300,325.417 13.915,325.417 14.596 C 325.417 15.557,325.347 15.833,325.104 15.833 C 324.910 15.833,324.792 16.030,324.792 16.354 C 324.792 16.678,324.674 16.875,324.479 16.875 C 324.307 16.875,324.167 17.016,324.167 17.188 C 324.167 17.359,324.069 17.500,323.950 17.500 C 323.830 17.500,323.527 17.691,323.277 17.925 C 323.026 18.158,322.608 18.403,322.348 18.468 C 322.088 18.533,321.875 18.670,321.875 18.773 C 321.875 18.875,320.656 18.958,319.167 18.958 C 317.500 18.958,316.458 18.878,316.458 18.750 C 316.458 18.635,316.177 18.542,315.833 18.542 C 315.490 18.542,315.208 18.455,315.208 18.350 C 315.208 18.244,314.927 18.096,314.583 18.021 C 314.240 17.945,313.958 17.750,313.958 17.588 C 313.958 17.425,313.875 17.292,313.773 17.292 C 313.670 17.292,313.528 17.057,313.456 16.771 C 313.384 16.484,313.233 16.250,313.121 16.250 C 313.009 16.250,312.917 15.966,312.917 15.618 C 312.917 15.249,312.787 14.937,312.604 14.867 C 312.345 14.767,312.292 14.187,312.292 11.436 C 312.292 8.632,312.339 8.125,312.604 8.125 C 312.830 8.125,312.917 7.894,312.917 7.292 C 312.917 6.690,313.003 6.458,313.229 6.458 C 313.401 6.458,313.542 6.318,313.542 6.146 C 313.542 5.974,313.635 5.833,313.750 5.833 C 313.865 5.833,313.958 5.693,313.958 5.521 C 313.958 5.349,314.099 5.208,314.271 5.208 C 314.443 5.208,314.583 5.115,314.583 5.000 C 314.583 4.885,314.724 4.792,314.896 4.792 C 315.068 4.792,315.208 4.704,315.208 4.597 C 315.208 3.878,321.521 4.041,322.741 4.792 M354.331 4.495 C 354.412 4.618,354.875 4.899,355.359 5.120 C 355.843 5.340,356.242 5.638,356.245 5.781 C 356.248 5.924,356.391 6.042,356.563 6.042 C 356.757 6.042,356.875 6.238,356.875 6.563 C 356.875 6.849,356.957 7.083,357.058 7.083 C 357.159 7.083,357.284 7.664,357.335 8.373 C 357.387 9.098,357.535 9.699,357.672 9.745 C 358.044 9.869,357.982 12.917,357.598 13.425 C 357.427 13.651,357.292 14.273,357.292 14.831 C 357.292 15.383,357.198 15.833,357.083 15.833 C 356.969 15.833,356.875 16.068,356.875 16.354 C 356.875 16.678,356.757 16.875,356.563 16.875 C 356.391 16.875,356.250 17.016,356.250 17.188 C 356.250 17.359,356.109 17.500,355.938 17.500 C 355.766 17.500,355.625 17.573,355.625 17.662 C 355.625 17.751,355.204 18.008,354.689 18.235 C 354.175 18.461,353.753 18.716,353.752 18.802 C 353.749 19.042,348.587 18.991,348.438 18.750 C 348.367 18.635,348.080 18.542,347.800 18.542 C 347.521 18.542,347.292 18.455,347.292 18.350 C 347.292 18.244,347.010 18.096,346.667 18.021 C 346.323 17.945,346.042 17.750,346.042 17.588 C 346.042 17.425,345.901 17.292,345.729 17.292 C 345.535 17.292,345.417 17.095,345.417 16.771 C 345.417 16.484,345.323 16.250,345.208 16.250 C 345.094 16.250,345.000 16.022,345.000 15.744 C 345.000 15.466,344.859 15.097,344.688 14.926 C 344.437 14.675,344.375 13.977,344.375 11.391 C 344.375 8.720,344.428 8.149,344.688 8.050 C 344.884 7.974,345.000 7.656,345.000 7.194 C 345.000 6.789,345.094 6.458,345.208 6.458 C 345.323 6.458,345.417 6.318,345.417 6.146 C 345.417 5.974,345.557 5.833,345.729 5.833 C 345.901 5.833,346.042 5.693,346.042 5.521 C 346.042 5.349,346.182 5.208,346.354 5.208 C 346.526 5.208,346.667 5.115,346.667 5.000 C 346.667 4.885,346.807 4.792,346.979 4.792 C 347.151 4.792,347.292 4.704,347.292 4.597 C 347.292 4.164,354.047 4.066,354.331 4.495 M386.414 4.495 C 386.496 4.618,386.959 4.899,387.443 5.120 C 387.927 5.340,388.325 5.638,388.328 5.781 C 388.331 5.924,388.427 6.042,388.542 6.042 C 388.656 6.042,388.750 6.232,388.750 6.465 C 388.750 6.698,388.891 6.942,389.063 7.008 C 389.292 7.096,389.375 7.457,389.375 8.362 C 389.375 9.267,389.458 9.628,389.688 9.716 C 389.927 9.808,390.000 10.201,390.000 11.391 C 390.000 12.496,389.909 13.037,389.688 13.259 C 389.486 13.460,389.375 13.975,389.375 14.702 C 389.375 15.324,389.283 15.833,389.171 15.833 C 389.058 15.833,388.907 16.068,388.836 16.354 C 388.764 16.641,388.621 16.875,388.519 16.875 C 388.417 16.875,388.333 17.016,388.333 17.188 C 388.333 17.359,388.193 17.500,388.021 17.500 C 387.849 17.500,387.708 17.573,387.708 17.662 C 387.708 17.751,387.287 18.008,386.773 18.235 C 386.258 18.461,385.836 18.716,385.835 18.802 C 385.834 18.888,384.615 18.958,383.125 18.958 C 381.458 18.958,380.417 18.878,380.417 18.750 C 380.417 18.635,380.182 18.542,379.896 18.542 C 379.609 18.542,379.375 18.455,379.375 18.350 C 379.375 18.244,379.094 18.096,378.750 18.021 C 378.406 17.945,378.125 17.750,378.125 17.588 C 378.125 17.425,377.984 17.292,377.813 17.292 C 377.618 17.292,377.500 17.095,377.500 16.771 C 377.500 16.447,377.382 16.250,377.188 16.250 C 376.969 16.250,376.875 16.030,376.875 15.521 C 376.875 15.120,376.781 14.792,376.667 14.792 C 376.536 14.792,376.458 13.542,376.458 11.458 C 376.458 9.375,376.536 8.125,376.667 8.125 C 376.781 8.125,376.875 7.750,376.875 7.292 C 376.875 6.690,376.962 6.458,377.188 6.458 C 377.359 6.458,377.500 6.318,377.500 6.146 C 377.500 5.974,377.641 5.833,377.813 5.833 C 377.984 5.833,378.125 5.693,378.125 5.521 C 378.125 5.349,378.266 5.208,378.438 5.208 C 378.609 5.208,378.750 5.115,378.750 5.000 C 378.750 4.885,378.891 4.792,379.063 4.792 C 379.234 4.792,379.375 4.704,379.375 4.597 C 379.375 4.158,386.126 4.060,386.414 4.495 M199.583 5.938 C 199.583 6.224,199.677 6.458,199.792 6.458 C 199.906 6.458,200.000 6.649,200.000 6.882 C 200.000 7.114,200.141 7.359,200.313 7.425 C 200.484 7.491,200.625 7.725,200.625 7.945 C 200.625 8.166,200.766 8.400,200.938 8.466 C 201.109 8.532,201.250 8.764,201.250 8.981 C 201.250 9.198,201.391 9.375,201.563 9.375 C 201.738 9.375,201.875 9.561,201.875 9.798 C 201.875 10.031,202.016 10.275,202.188 10.341 C 202.359 10.407,202.500 10.639,202.500 10.856 C 202.500 11.073,202.641 11.250,202.813 11.250 C 202.986 11.250,203.125 11.435,203.125 11.667 C 203.125 11.898,203.264 12.083,203.438 12.083 C 203.632 12.083,203.750 12.280,203.750 12.604 C 203.750 12.891,203.844 13.125,203.958 13.125 C 204.073 13.125,204.167 13.219,204.167 13.333 C 204.167 13.467,202.257 13.542,198.854 13.542 C 195.451 13.542,193.542 13.467,193.542 13.333 C 193.542 13.219,193.682 13.125,193.854 13.125 C 194.049 13.125,194.167 12.928,194.167 12.604 C 194.167 12.280,194.285 12.083,194.479 12.083 C 194.651 12.083,194.792 11.906,194.792 11.689 C 194.792 11.472,194.932 11.241,195.104 11.175 C 195.276 11.109,195.417 10.864,195.417 10.632 C 195.417 10.399,195.510 10.208,195.625 10.208 C 195.740 10.208,195.833 10.021,195.833 9.792 C 195.833 9.560,195.972 9.375,196.146 9.375 C 196.318 9.375,196.458 9.198,196.458 8.981 C 196.458 8.764,196.599 8.532,196.771 8.466 C 196.943 8.400,197.083 8.156,197.083 7.923 C 197.083 7.686,197.221 7.500,197.396 7.500 C 197.590 7.500,197.708 7.303,197.708 6.979 C 197.708 6.655,197.826 6.458,198.021 6.458 C 198.215 6.458,198.333 6.262,198.333 5.938 C 198.333 5.498,198.431 5.417,198.958 5.417 C 199.486 5.417,199.583 5.498,199.583 5.938 " stroke="none" fill="#000000" fill-rule="evenodd"></path></g></svg>