<svg id="svg" version="1.1" xmlns="http://www.w3.org/2000/svg" xmlns:xlink="http://www.w3.org/1999/xlink" width="400" height="225" viewBox="0, 0, 400,225"><g id="svgg"><path id="path0" d="M150.677 109.605 C 146.747 111.551,148.106 115.440,153.039 116.363 C 155.896 116.898,156.619 117.501,156.121 118.936 C 155.572 120.520,150.657 120.607,149.368 119.055 C 148.836 118.413,148.542 118.704,148.542 119.873 L 148.542 120.996 149.427 121.368 C 153.554 123.103,158.274 121.191,158.068 117.867 C 157.946 115.892,157.052 115.212,153.744 114.582 C 151.343 114.125,150.888 113.921,150.606 113.178 C 149.834 111.150,153.064 110.089,156.146 111.358 C 157.762 112.024,157.708 112.041,157.708 110.861 L 157.708 109.847 156.497 109.507 C 154.691 109.000,151.801 109.049,150.677 109.605 M224.740 109.500 C 223.752 109.804,223.750 109.806,223.750 110.735 C 223.750 111.809,223.718 111.798,225.158 111.250 C 227.590 110.326,229.583 110.935,229.583 112.603 C 229.583 114.036,228.490 115.485,225.260 118.335 C 223.603 119.797,223.542 119.883,223.542 120.759 L 223.542 121.667 227.813 121.667 L 232.083 121.667 232.083 120.938 L 232.083 120.208 228.825 120.208 L 225.566 120.208 226.585 119.338 C 231.019 115.549,232.289 113.143,231.078 110.830 C 230.279 109.302,227.368 108.692,224.740 109.500 M236.979 109.448 C 233.774 110.918,233.726 119.934,236.915 121.583 C 237.893 122.089,240.515 121.923,241.388 121.301 C 243.901 119.508,243.897 111.530,241.382 109.736 C 240.573 109.159,237.979 108.990,236.979 109.448 M248.229 109.448 C 245.024 110.918,244.976 119.934,248.165 121.583 C 249.143 122.089,251.765 121.923,252.638 121.301 C 255.151 119.508,255.147 111.530,252.632 109.736 C 251.823 109.159,249.229 108.990,248.229 109.448 M259.479 109.448 C 256.274 110.918,256.226 119.934,259.415 121.583 C 260.393 122.089,263.015 121.923,263.888 121.301 C 266.401 119.508,266.397 111.530,263.882 109.736 C 263.073 109.159,260.479 108.990,259.479 109.448 M125.625 110.104 L 125.625 110.833 127.813 110.833 L 130.000 110.833 130.000 116.250 L 130.000 121.667 130.833 121.667 L 131.667 121.667 131.667 116.250 L 131.667 110.833 133.854 110.833 L 136.042 110.833 136.042 110.104 L 136.042 109.375 130.833 109.375 L 125.625 109.375 125.625 110.104 M137.917 115.521 L 137.917 121.667 142.083 121.667 L 146.250 121.667 146.250 120.938 L 146.250 120.208 143.021 120.208 L 139.792 120.208 139.792 117.917 L 139.792 115.625 143.021 115.625 L 146.250 115.625 146.250 114.896 L 146.250 114.167 143.021 114.167 L 139.792 114.167 139.792 112.500 L 139.792 110.833 143.021 110.833 L 146.250 110.833 146.250 110.104 L 146.250 109.375 142.083 109.375 L 137.917 109.375 137.917 115.521 M159.375 110.104 L 159.375 110.833 161.563 110.833 L 163.750 110.833 163.750 116.250 L 163.750 121.667 164.583 121.667 L 165.417 121.667 165.417 116.250 L 165.417 110.833 167.604 110.833 L 169.792 110.833 169.792 110.104 L 169.792 109.375 164.583 109.375 L 159.375 109.375 159.375 110.104 M177.917 115.521 L 177.917 121.667 178.850 121.667 L 179.784 121.667 179.840 116.793 L 179.896 111.918 181.364 115.074 C 183.431 119.516,183.574 119.514,185.682 115.022 L 187.188 111.815 187.243 116.741 L 187.299 121.667 188.233 121.667 L 189.167 121.667 189.167 115.511 L 189.167 109.355 187.874 109.417 L 186.580 109.479 185.128 112.646 C 184.329 114.387,183.622 115.779,183.557 115.738 C 183.491 115.697,182.781 114.252,181.979 112.526 L 180.521 109.388 179.219 109.381 L 177.917 109.375 177.917 115.521 M195.394 109.948 C 194.597 112.018,191.250 121.335,191.250 121.484 C 191.250 121.584,191.664 121.667,192.170 121.667 L 193.091 121.667 193.646 120.000 L 194.201 118.333 196.752 118.333 L 199.303 118.333 199.883 120.000 L 200.463 121.667 201.478 121.667 L 202.493 121.667 201.757 119.635 C 201.353 118.518,200.350 115.753,199.528 113.490 L 198.034 109.375 196.824 109.375 C 195.697 109.375,195.600 109.414,195.394 109.948 M204.375 115.521 L 204.375 121.667 205.309 121.667 L 206.243 121.667 206.298 116.552 L 206.354 111.437 209.055 116.552 L 211.756 121.667 212.857 121.667 L 213.958 121.667 213.958 115.521 L 213.958 109.375 213.129 109.375 L 212.299 109.375 212.243 114.058 L 212.188 118.741 209.719 114.058 L 207.251 109.375 205.813 109.375 L 204.375 109.375 204.375 115.521 M240.494 111.464 C 241.156 112.251,241.340 113.135,241.340 115.521 C 241.340 119.551,239.725 121.410,237.549 119.886 C 236.015 118.812,236.098 111.966,237.656 111.058 C 238.475 110.581,239.926 110.789,240.494 111.464 M251.744 111.464 C 252.406 112.251,252.590 113.135,252.590 115.521 C 252.590 119.551,250.975 121.410,248.799 119.886 C 247.265 118.812,247.348 111.966,248.906 111.058 C 249.725 110.581,251.176 110.789,251.744 111.464 M262.994 111.464 C 263.656 112.251,263.840 113.135,263.840 115.521 C 263.840 119.551,262.225 121.410,260.049 119.886 C 258.515 118.812,258.598 111.966,260.156 111.058 C 260.975 110.581,262.426 110.789,262.994 111.464 M197.799 114.058 C 198.322 115.542,198.750 116.782,198.750 116.815 C 198.750 116.848,197.849 116.875,196.749 116.875 C 195.236 116.875,194.770 116.811,194.841 116.615 C 194.893 116.471,195.338 115.204,195.831 113.797 C 196.324 112.391,196.754 111.268,196.787 111.301 C 196.821 111.335,197.276 112.575,197.799 114.058 " stroke="none" fill="#000000" fill-rule="evenodd"></path></g></svg>