<svg id="svg" xmlns="http://www.w3.org/2000/svg" xmlns:xlink="http://www.w3.org/1999/xlink" width="400" height="225" viewBox="0, 0, 400,225"><g id="svgg"><path id="path0" d="M1.875 13.743 L 1.875 24.583 3.333 24.583 L 4.792 24.583 4.793 15.052 L 4.794 5.521 9.838 15.052 L 14.881 24.583 16.816 24.583 L 18.750 24.583 18.750 13.750 L 18.750 2.917 17.294 2.917 L 15.838 2.917 15.784 11.456 L 15.729 19.996 11.233 11.508 L 6.738 3.021 4.306 2.962 L 1.875 2.903 1.875 13.743 M62.083 4.167 L 62.083 5.417 68.333 5.417 C 71.771 5.417,74.583 5.460,74.583 5.512 C 74.583 5.565,71.630 9.264,68.021 13.734 L 61.458 21.859 61.458 23.221 L 61.458 24.583 70.000 24.583 L 78.542 24.583 78.542 23.336 L 78.542 22.089 71.795 22.034 L 65.048 21.979 71.683 13.750 L 78.319 5.521 78.326 4.219 L 78.333 2.917 70.208 2.917 L 62.083 2.917 62.083 4.167 M137.601 3.177 C 136.603 5.946,130.181 23.599,130.022 24.010 L 129.802 24.583 131.419 24.583 L 133.035 24.583 134.070 21.564 L 135.104 18.544 139.688 18.543 L 144.271 18.543 145.311 21.563 L 146.351 24.583 147.967 24.583 C 148.856 24.583,149.583 24.513,149.584 24.427 C 149.584 24.341,147.836 19.466,145.701 13.594 L 141.818 2.917 139.757 2.917 C 138.297 2.917,137.668 2.993,137.601 3.177 M141.461 10.729 C 142.407 13.365,143.225 15.638,143.279 15.781 C 143.356 15.983,142.554 16.042,139.688 16.042 C 136.258 16.042,136.007 16.016,136.137 15.677 C 136.215 15.477,137.040 13.183,137.973 10.580 C 138.905 7.978,139.684 5.868,139.705 5.893 C 139.725 5.917,140.516 8.094,141.461 10.729 M28.542 8.111 C 24.019 9.492,21.919 15.693,24.184 20.977 C 26.485 26.346,34.903 26.452,37.516 21.144 C 41.042 13.982,35.530 5.978,28.542 8.111 M48.519 8.407 C 47.877 8.671,47.056 9.097,46.696 9.354 L 46.042 9.820 46.042 9.077 L 46.042 8.333 44.479 8.333 L 42.917 8.333 42.917 16.458 L 42.917 24.583 44.476 24.583 L 46.035 24.583 46.091 18.492 L 46.146 12.401 47.708 11.598 C 49.168 10.847,49.369 10.799,50.763 10.869 C 53.602 11.011,53.777 11.456,53.912 18.906 L 54.016 24.583 55.445 24.583 L 56.875 24.583 56.875 19.101 C 56.875 12.073,56.605 10.582,55.071 9.126 C 53.681 7.806,50.759 7.486,48.519 8.407 M86.526 8.205 C 82.581 9.489,80.439 14.074,81.484 19.000 C 82.601 24.265,88.368 26.513,94.688 24.149 L 95.833 23.720 95.833 22.173 C 95.833 20.448,95.765 20.389,94.631 21.139 C 90.146 24.107,84.962 22.362,84.284 17.656 L 84.141 16.667 90.227 16.667 L 96.312 16.667 96.181 14.809 C 95.849 10.139,93.865 8.084,89.583 7.977 C 88.164 7.942,87.090 8.022,86.526 8.205 M117.708 8.111 C 113.186 9.492,111.085 15.693,113.350 20.977 C 115.652 26.346,124.070 26.452,126.683 21.144 C 130.209 13.982,124.697 5.978,117.708 8.111 M174.859 8.205 C 170.914 9.489,168.772 14.074,169.818 19.000 C 170.935 24.265,176.701 26.513,183.021 24.149 L 184.167 23.720 184.167 22.173 C 184.167 20.448,184.098 20.389,182.964 21.139 C 178.479 24.107,173.295 22.362,172.617 17.656 L 172.474 16.667 178.560 16.667 L 184.646 16.667 184.514 14.809 C 184.182 10.139,182.198 8.084,177.917 7.977 C 176.497 7.942,175.424 8.022,174.859 8.205 M100.417 16.458 L 100.417 24.583 101.979 24.583 L 103.542 24.583 103.542 18.825 C 103.542 12.284,103.359 12.925,105.521 11.864 C 106.645 11.312,106.975 11.250,108.802 11.250 L 110.833 11.250 110.833 9.792 L 110.833 8.333 109.010 8.335 C 107.056 8.338,105.713 8.782,104.220 9.920 L 103.542 10.438 103.542 9.386 L 103.542 8.333 101.979 8.333 L 100.417 8.333 100.417 16.458 M151.792 9.115 C 152.117 9.544,153.529 11.377,154.930 13.188 L 157.477 16.481 154.505 20.272 C 152.871 22.357,151.464 24.180,151.379 24.323 C 151.261 24.523,151.627 24.582,152.956 24.578 L 154.688 24.573 156.899 21.566 L 159.111 18.559 161.343 21.571 L 163.575 24.583 165.459 24.583 C 166.937 24.583,167.298 24.527,167.136 24.323 C 165.295 21.999,161.042 16.435,161.042 16.350 C 161.042 16.250,166.224 9.638,167.040 8.698 C 167.338 8.354,167.253 8.333,165.576 8.333 L 163.795 8.333 161.637 11.242 C 160.450 12.842,159.432 14.151,159.375 14.151 C 159.318 14.151,158.300 12.842,157.113 11.242 L 154.955 8.333 153.078 8.333 L 151.201 8.333 151.792 9.115 M32.770 10.698 C 37.059 12.490,36.083 22.082,31.574 22.456 C 27.822 22.767,25.857 19.897,26.472 15.001 C 26.930 11.353,29.741 9.433,32.770 10.698 M91.110 10.701 C 91.977 11.063,92.840 12.086,93.116 13.079 C 93.563 14.689,93.869 14.583,88.746 14.583 L 84.159 14.583 84.292 14.010 C 84.949 11.173,88.322 9.536,91.110 10.701 M121.937 10.698 C 126.225 12.490,125.249 22.082,120.741 22.456 C 116.988 22.767,115.024 19.897,115.639 15.001 C 116.097 11.353,118.908 9.433,121.937 10.698 M179.444 10.701 C 180.311 11.063,181.173 12.086,181.449 13.079 C 181.896 14.689,182.203 14.583,177.079 14.583 L 172.492 14.583 172.625 14.010 C 173.282 11.173,176.655 9.536,179.444 10.701 " stroke="none" fill="#000000" fill-rule="evenodd"></path></g></svg>